<svg xmlns="http://www.w3.org/2000/svg" width="1100" height="520" viewBox="0 0 1100 520">
<rect width="100%" height="100%" fill="#f8fafc"/>
<text x="48" y="58" font-family="Inter, Arial, sans-serif" font-size="28" font-weight="700" fill="#111827" text-anchor="start">Vehicle Detection Workflow</text>
<text x="48" y="86" font-family="Inter, Arial, sans-serif" font-size="15" font-weight="400" fill="#475569" text-anchor="start">YOLO annotations move through inspection, training, validation, and inference.</text>
<rect x="70" y="170" width="170" height="120" rx="18" fill="#ffffff" stroke="#2563eb" stroke-width="3"/>
<text x="155.0" y="218" font-family="Inter, Arial, sans-serif" font-size="18" font-weight="700" fill="#111827" text-anchor="middle">YOLO labels</text>
<text x="155.0" y="248" font-family="Inter, Arial, sans-serif" font-size="13" font-weight="500" fill="#475569" text-anchor="middle">class + x/y/w/h</text>
<line x1="258" y1="230.0" x2="257" y2="230.0" stroke="#94a3b8" stroke-width="3"/>
<path d="M 257 230.0 l -10 -7 v 14 z" fill="#94a3b8"/>
<rect x="275" y="170" width="170" height="120" rx="18" fill="#ffffff" stroke="#0891b2" stroke-width="3"/>
<text x="360.0" y="218" font-family="Inter, Arial, sans-serif" font-size="18" font-weight="700" fill="#111827" text-anchor="middle">Annotation QA</text>
<text x="360.0" y="248" font-family="Inter, Arial, sans-serif" font-size="13" font-weight="500" fill="#475569" text-anchor="middle">visual box checks</text>
<line x1="463" y1="230.0" x2="462" y2="230.0" stroke="#94a3b8" stroke-width="3"/>
<path d="M 462 230.0 l -10 -7 v 14 z" fill="#94a3b8"/>
<rect x="480" y="170" width="170" height="120" rx="18" fill="#ffffff" stroke="#7c3aed" stroke-width="3"/>
<text x="565.0" y="218" font-family="Inter, Arial, sans-serif" font-size="18" font-weight="700" fill="#111827" text-anchor="middle">YOLOv8 train</text>
<text x="565.0" y="248" font-family="Inter, Arial, sans-serif" font-size="13" font-weight="500" fill="#475569" text-anchor="middle">5 vehicle classes</text>
<line x1="668" y1="230.0" x2="667" y2="230.0" stroke="#94a3b8" stroke-width="3"/>
<path d="M 667 230.0 l -10 -7 v 14 z" fill="#94a3b8"/>
<rect x="685" y="170" width="170" height="120" rx="18" fill="#ffffff" stroke="#059669" stroke-width="3"/>
<text x="770.0" y="218" font-family="Inter, Arial, sans-serif" font-size="18" font-weight="700" fill="#111827" text-anchor="middle">Validation</text>
<text x="770.0" y="248" font-family="Inter, Arial, sans-serif" font-size="13" font-weight="500" fill="#475569" text-anchor="middle">P / R / mAP</text>
<line x1="873" y1="230.0" x2="872" y2="230.0" stroke="#94a3b8" stroke-width="3"/>
<path d="M 872 230.0 l -10 -7 v 14 z" fill="#94a3b8"/>
<rect x="890" y="170" width="170" height="120" rx="18" fill="#ffffff" stroke="#f59e0b" stroke-width="3"/>
<text x="975.0" y="218" font-family="Inter, Arial, sans-serif" font-size="18" font-weight="700" fill="#111827" text-anchor="middle">Inference</text>
<text x="975.0" y="248" font-family="Inter, Arial, sans-serif" font-size="13" font-weight="500" fill="#475569" text-anchor="middle">detected vehicles</text>
<rect x="400" y="345" width="300" height="105" rx="14" fill="#e0f2fe" stroke="#38bdf8"/>
<rect x="445" y="372" width="180" height="48" fill="none" stroke="#22c55e" stroke-width="5"/>
<rect x="445" y="348" width="58" height="27" rx="4" fill="#22c55e"/>
<text x="474" y="367" font-family="Inter, Arial, sans-serif" font-size="17" font-weight="700" fill="#ffffff" text-anchor="middle">Bus</text>
<text x="550" y="480" font-family="Inter, Arial, sans-serif" font-size="15" font-weight="600" fill="#334155" text-anchor="middle">Detector output: class label + bounding box</text>
</svg>
