<svg xmlns="http://www.w3.org/2000/svg" width="1050" height="560" viewBox="0 0 1050 560">
<rect width="100%" height="100%" fill="#f8fafc"/>
<text x="48" y="58" font-family="Inter, Arial, sans-serif" font-size="28" font-weight="700" fill="#111827" text-anchor="start">YOLOv8 Validation Metrics</text>
<text x="48" y="86" font-family="Inter, Arial, sans-serif" font-size="15" font-weight="400" fill="#475569" text-anchor="start">Detector performance across classification confidence and localisation quality.</text>
<rect x="80" y="90" width="940" height="415" rx="16" fill="#ffffff" stroke="#cbd5e1"/>
<text x="230" y="155" font-family="Inter, Arial, sans-serif" font-size="14" font-weight="600" fill="#334155" text-anchor="end">Precision</text>
<rect x="250" y="135" width="594.8" height="24" rx="7" fill="#2563eb"/>
<text x="854.8307692307692" y="153" font-family="Inter, Arial, sans-serif" font-size="13" font-weight="700" fill="#111827" text-anchor="start">0.537</text>
<text x="230" y="193" font-family="Inter, Arial, sans-serif" font-size="14" font-weight="600" fill="#334155" text-anchor="end">Recall</text>
<rect x="250" y="173" width="548.3" height="24" rx="7" fill="#059669"/>
<text x="808.3076923076923" y="191" font-family="Inter, Arial, sans-serif" font-size="13" font-weight="700" fill="#111827" text-anchor="start">0.495</text>
<text x="230" y="231" font-family="Inter, Arial, sans-serif" font-size="14" font-weight="600" fill="#334155" text-anchor="end">mAP50</text>
<rect x="250" y="211" width="550.5" height="24" rx="7" fill="#7c3aed"/>
<text x="810.5230769230769" y="229" font-family="Inter, Arial, sans-serif" font-size="13" font-weight="700" fill="#111827" text-anchor="start">0.497</text>
<text x="230" y="269" font-family="Inter, Arial, sans-serif" font-size="14" font-weight="600" fill="#334155" text-anchor="end">mAP50-95</text>
<rect x="250" y="249" width="379.9" height="24" rx="7" fill="#f59e0b"/>
<text x="639.9384615384615" y="267" font-family="Inter, Arial, sans-serif" font-size="13" font-weight="700" fill="#111827" text-anchor="start">0.343</text>
<line x1="250.0" y1="123" x2="250.0" y2="460" stroke="#e2e8f0"/>
<text x="250.0" y="490" font-family="Inter, Arial, sans-serif" font-size="12" font-weight="400" fill="#64748b" text-anchor="middle">0.00</text>
<line x1="394.0" y1="123" x2="394.0" y2="460" stroke="#e2e8f0"/>
<text x="394.0" y="490" font-family="Inter, Arial, sans-serif" font-size="12" font-weight="400" fill="#64748b" text-anchor="middle">0.13</text>
<line x1="538.0" y1="123" x2="538.0" y2="460" stroke="#e2e8f0"/>
<text x="538.0" y="490" font-family="Inter, Arial, sans-serif" font-size="12" font-weight="400" fill="#64748b" text-anchor="middle">0.26</text>
<line x1="682.0" y1="123" x2="682.0" y2="460" stroke="#e2e8f0"/>
<text x="682.0" y="490" font-family="Inter, Arial, sans-serif" font-size="12" font-weight="400" fill="#64748b" text-anchor="middle">0.39</text>
<line x1="826.0" y1="123" x2="826.0" y2="460" stroke="#e2e8f0"/>
<text x="826.0" y="490" font-family="Inter, Arial, sans-serif" font-size="12" font-weight="400" fill="#64748b" text-anchor="middle">0.52</text>
<line x1="970.0" y1="123" x2="970.0" y2="460" stroke="#e2e8f0"/>
<text x="970.0" y="490" font-family="Inter, Arial, sans-serif" font-size="12" font-weight="400" fill="#64748b" text-anchor="middle">0.65</text>
</svg>
